<svg width="16" height="18" viewBox="0 0 16 18" fill="none" xmlns="http://www.w3.org/2000/svg">
<path d="M7.84754 10.8116C6.06508 10.8116 4.60901 9.36393 4.60901 7.57313C4.60901 5.78237 6.06508 4.34304 7.84754 4.34304C9.62996 4.34304 11.086 5.79074 11.086 7.5815C11.086 9.3723 9.62996 10.8116 7.84754 10.8116ZM7.84754 5.59827C6.75967 5.59827 5.86424 6.4853 5.86424 7.5815C5.86424 8.67774 6.7513 9.56476 7.84754 9.56476C8.94377 9.56476 9.8308 8.67774 9.8308 7.5815C9.8308 6.4853 8.9354 5.59827 7.84754 5.59827Z" fill="#121214"/>
<path d="M7.84657 18C6.60808 18 5.36121 17.5314 4.39049 16.6025C1.92188 14.2259 -0.806158 10.4351 0.223131 5.92469C1.152 1.83264 4.72522 0 7.84657 0H7.85494C10.9763 0 14.5495 1.83264 15.4784 5.93305C16.4993 10.4435 13.7713 14.2259 11.3026 16.6025C10.3319 17.5314 9.08506 18 7.84657 18ZM7.84657 1.25523C5.41141 1.25523 2.28171 2.5523 1.45326 6.20084C0.549491 10.1423 3.02648 13.5397 5.26916 15.6904C6.71686 17.0879 8.98464 17.0879 10.4323 15.6904C12.6667 13.5397 15.1436 10.1423 14.2566 6.20084C13.4198 2.5523 10.2817 1.25523 7.84657 1.25523Z" fill="#121214"/>
</svg>
