<svg width="47" height="36" viewBox="0 0 47 36" fill="none" xmlns="http://www.w3.org/2000/svg">
<path d="M13.8365 27H12.9558C12.9037 26.7467 12.8126 26.5241 12.6824 26.3324C12.5545 26.1406 12.3983 25.9796 12.2136 25.8494C12.0313 25.7169 11.8289 25.6174 11.6064 25.5511C11.3838 25.4848 11.1518 25.4517 10.9103 25.4517C10.47 25.4517 10.0711 25.563 9.7136 25.7855C9.35849 26.008 9.07558 26.3359 8.86488 26.7692C8.65655 27.2024 8.55238 27.7339 8.55238 28.3636C8.55238 28.9934 8.65655 29.5249 8.86488 29.9581C9.07558 30.3913 9.35849 30.7192 9.7136 30.9418C10.0711 31.1643 10.47 31.2756 10.9103 31.2756C11.1518 31.2756 11.3838 31.2424 11.6064 31.1761C11.8289 31.1098 12.0313 31.0116 12.2136 30.8814C12.3983 30.7488 12.5545 30.5866 12.6824 30.3949C12.8126 30.2008 12.9037 29.9782 12.9558 29.7273H13.8365C13.7702 30.099 13.6494 30.4316 13.4743 30.7251C13.2991 31.0187 13.0813 31.2685 12.8208 31.4744C12.5604 31.678 12.2681 31.8331 11.9437 31.9396C11.6217 32.0462 11.2773 32.0994 10.9103 32.0994C10.2901 32.0994 9.73846 31.9479 9.2555 31.6449C8.77255 31.3419 8.39258 30.911 8.11559 30.3523C7.8386 29.7936 7.70011 29.1307 7.70011 28.3636C7.70011 27.5966 7.8386 26.9337 8.11559 26.375C8.39258 25.8163 8.77255 25.3854 9.2555 25.0824C9.73846 24.7794 10.2901 24.6278 10.9103 24.6278C11.2773 24.6278 11.6217 24.6811 11.9437 24.7876C12.2681 24.8942 12.5604 25.0504 12.8208 25.2564C13.0813 25.46 13.2991 25.7086 13.4743 26.0021C13.6494 26.2933 13.7702 26.6259 13.8365 27ZM15.2596 32V24.7273H16.1403V31.2188H19.521V32H15.2596ZM25.6573 24.7273H26.538V29.5426C26.538 30.0398 26.4208 30.4837 26.1864 30.8743C25.9544 31.2625 25.6265 31.5691 25.2028 31.794C24.779 32.0166 24.2818 32.1278 23.7113 32.1278C23.1407 32.1278 22.6436 32.0166 22.2198 31.794C21.796 31.5691 21.467 31.2625 21.2326 30.8743C21.0006 30.4837 20.8846 30.0398 20.8846 29.5426V24.7273H21.7653V29.4716C21.7653 29.8267 21.8434 30.1428 21.9996 30.4197C22.1559 30.6944 22.3784 30.911 22.6673 31.0696C22.9585 31.2259 23.3065 31.304 23.7113 31.304C24.1161 31.304 24.4641 31.2259 24.7553 31.0696C25.0465 30.911 25.2691 30.6944 25.4229 30.4197C25.5792 30.1428 25.6573 29.8267 25.6573 29.4716V24.7273ZM28.2967 32V24.7273H30.8393C31.3459 24.7273 31.7638 24.8149 32.0929 24.9901C32.4219 25.1629 32.667 25.3961 32.8279 25.6896C32.9889 25.9808 33.0694 26.304 33.0694 26.6591C33.0694 26.9716 33.0138 27.2296 32.9025 27.4332C32.7936 27.6368 32.6492 27.7978 32.4693 27.9162C32.2917 28.0346 32.0988 28.1222 31.8904 28.179V28.25C32.113 28.2642 32.3367 28.3423 32.5616 28.4844C32.7865 28.6264 32.9747 28.83 33.1262 29.0952C33.2778 29.3603 33.3535 29.6847 33.3535 30.0682C33.3535 30.4328 33.2707 30.7607 33.1049 31.0518C32.9392 31.343 32.6776 31.5739 32.3201 31.7443C31.9627 31.9148 31.4975 32 30.9245 32H28.2967ZM29.1774 31.2188H30.9245C31.4998 31.2188 31.9082 31.1075 32.1497 30.8849C32.3935 30.66 32.5154 30.3878 32.5154 30.0682C32.5154 29.822 32.4527 29.5947 32.3272 29.3864C32.2018 29.1757 32.023 29.0076 31.791 28.8821C31.559 28.7543 31.2844 28.6903 30.9672 28.6903H29.1774V31.2188ZM29.1774 27.9233H30.8109C31.0761 27.9233 31.3152 27.8712 31.5282 27.767C31.7437 27.6629 31.9141 27.5161 32.0396 27.3267C32.1674 27.1373 32.2314 26.9148 32.2314 26.6591C32.2314 26.3395 32.1201 26.0684 31.8975 25.8459C31.675 25.621 31.3223 25.5085 30.8393 25.5085H29.1774V27.9233ZM34.8006 32V24.7273H39.1898V25.5085H35.6813V27.9659H38.9625V28.7472H35.6813V31.2188H39.2466V32H34.8006Z" fill="#969696"/>
<path d="M32.9921 7.46455L32.6079 7.69487L29.9211 9.30541L29.9205 9.3058C29.1092 9.79049 28.0592 9.51659 27.5897 8.6942L32.9921 7.46455ZM32.9921 7.46455L32.8052 7.05743C32.7289 6.89124 32.6875 6.71716 32.6875 6.53125C32.6875 5.82399 33.2615 5.25 33.9688 5.25C34.676 5.25 35.25 5.82399 35.25 6.53125C35.25 7.23851 34.676 7.8125 33.9688 7.8125C33.9176 7.8125 33.8584 7.80452 33.762 7.78909L33.3584 7.72451L33.2148 8.10725L30.6535 14.9375H17.0965L14.5352 8.10725L14.3916 7.72451L13.988 7.78909C13.8916 7.80452 13.8324 7.8125 13.7812 7.8125C13.074 7.8125 12.5 7.23851 12.5 6.53125C12.5 5.82535 13.0763 5.25 13.785 5.25C14.4922 5.25 15.0662 5.82399 15.0662 6.53125C15.0662 6.71423 15.0224 6.89315 14.947 7.06083L14.7646 7.46603L15.1456 7.69471L17.8283 9.30506C18.6369 9.79131 19.6913 9.51614 20.1605 8.69386L23.1847 3.4024L23.394 3.03611L23.0682 2.76812C22.7773 2.52892 22.5938 2.17678 22.5938 1.78125C22.5938 1.07399 23.1677 0.5 23.875 0.5C24.5823 0.5 25.1562 1.07399 25.1562 1.78125C25.1562 2.17678 24.9727 2.52892 24.6818 2.76812L24.356 3.03611L24.5653 3.4024L27.5895 8.69386L32.9921 7.46455ZM16.0625 17.2188C16.0625 17.1683 16.1058 17.125 16.1562 17.125H31.5938C31.6442 17.125 31.6875 17.1683 31.6875 17.2188V18.4062C31.6875 18.4567 31.6442 18.5 31.5938 18.5H16.1562C16.1058 18.5 16.0625 18.4567 16.0625 18.4062V17.2188Z" stroke="#263238"/>
</svg>
