<svg width="47" height="37" viewBox="0 0 47 37" fill="none" xmlns="http://www.w3.org/2000/svg">
<path d="M8.57741 33H7.65412L10.3246 25.7273H11.2337L13.9041 33H12.9808L10.8075 26.8778H10.7507L8.57741 33ZM8.91832 30.1591H12.6399V30.9403H8.91832V30.1591ZM17.821 25.7273H18.7017V30.9261C18.7017 31.3902 18.6165 31.7843 18.446 32.1087C18.2756 32.433 18.0353 32.6792 17.7251 32.8473C17.415 33.0154 17.0492 33.0994 16.6278 33.0994C16.2301 33.0994 15.8762 33.0272 15.5661 32.8828C15.2559 32.736 15.0121 32.5277 14.8345 32.2578C14.657 31.9879 14.5682 31.6671 14.5682 31.2955H15.4347C15.4347 31.5014 15.4856 31.6813 15.5874 31.8352C15.6915 31.9867 15.8336 32.1051 16.0135 32.1903C16.1934 32.2756 16.3982 32.3182 16.6278 32.3182C16.8812 32.3182 17.0966 32.2649 17.2741 32.1584C17.4517 32.0518 17.5866 31.8956 17.679 31.6896C17.7737 31.4813 17.821 31.2268 17.821 30.9261V25.7273ZM25.2393 25.7273H26.12V30.5426C26.12 31.0398 26.0028 31.4837 25.7685 31.8743C25.5365 32.2625 25.2086 32.5691 24.7848 32.794C24.361 33.0166 23.8639 33.1278 23.2933 33.1278C22.7228 33.1278 22.2256 33.0166 21.8018 32.794C21.3781 32.5691 21.049 32.2625 20.8146 31.8743C20.5826 31.4837 20.4666 31.0398 20.4666 30.5426V25.7273H21.3473V30.4716C21.3473 30.8267 21.4254 31.1428 21.5817 31.4197C21.7379 31.6944 21.9605 31.911 22.2493 32.0696C22.5405 32.2259 22.8885 32.304 23.2933 32.304C23.6982 32.304 24.0462 32.2259 24.3374 32.0696C24.6286 31.911 24.8511 31.6944 25.005 31.4197C25.1612 31.1428 25.2393 30.8267 25.2393 30.4716V25.7273ZM30.123 33H27.8787V25.7273H30.2225C30.928 25.7273 31.5317 25.8729 32.0336 26.1641C32.5355 26.4529 32.9202 26.8684 33.1877 27.4105C33.4552 27.9503 33.589 28.5966 33.589 29.3494C33.589 30.107 33.454 30.7592 33.1841 31.3061C32.9142 31.8506 32.5212 32.2696 32.0051 32.5632C31.4891 32.8544 30.8617 33 30.123 33ZM28.7594 32.2188H30.0662C30.6676 32.2188 31.1659 32.1027 31.5613 31.8707C31.9566 31.6387 32.2514 31.3085 32.4455 30.88C32.6396 30.4515 32.7367 29.9413 32.7367 29.3494C32.7367 28.7623 32.6408 28.2569 32.449 27.8331C32.2573 27.407 31.9708 27.0803 31.5897 26.853C31.2085 26.6233 30.7338 26.5085 30.1657 26.5085H28.7594V32.2188ZM35.0227 33H34.0994L36.7699 25.7273H37.679L40.3494 33H39.4261L37.2528 26.8778H37.196L35.0227 33ZM35.3636 30.1591H39.0852V30.9403H35.3636V30.1591Z" fill="#969696"/>
<path d="M23.5 20C28.7467 20 33 15.7467 33 10.5C33 5.25329 28.7467 1 23.5 1C18.2533 1 14 5.25329 14 10.5C14 12.2303 14.4626 13.8526 15.2709 15.25L14.475 19.525L18.75 18.7291C20.1473 19.5374 21.7697 20 23.5 20Z" stroke="#31425A" stroke-width="1.425" stroke-linecap="round" stroke-linejoin="round"/>
<path d="M20.65 7.65001C20.65 4.32498 25.875 4.32501 25.875 7.65001C25.875 10.025 23.5 9.54992 23.5 12.3999" stroke="#31425A" stroke-width="1.425" stroke-linecap="round" stroke-linejoin="round"/>
<path d="M23.5 16.2095L23.5095 16.199" stroke="#31425A" stroke-width="1.425" stroke-linecap="round" stroke-linejoin="round"/>
</svg>
