<svg width="47" height="36" viewBox="0 0 47 36" fill="none" xmlns="http://www.w3.org/2000/svg">
<path d="M9.93439 32V24.7273H10.8151V27.9659H14.6929V24.7273H15.5736V32H14.6929V28.7472H10.8151V32H9.93439ZM23.4731 28.3636C23.4731 29.1307 23.3346 29.7936 23.0576 30.3523C22.7806 30.911 22.4007 31.3419 21.9177 31.6449C21.4347 31.9479 20.8831 32.0994 20.2629 32.0994C19.6426 32.0994 19.091 31.9479 18.608 31.6449C18.1251 31.3419 17.7451 30.911 17.4681 30.3523C17.1911 29.7936 17.0526 29.1307 17.0526 28.3636C17.0526 27.5966 17.1911 26.9337 17.4681 26.375C17.7451 25.8163 18.1251 25.3854 18.608 25.0824C19.091 24.7794 19.6426 24.6278 20.2629 24.6278C20.8831 24.6278 21.4347 24.7794 21.9177 25.0824C22.4007 25.3854 22.7806 25.8163 23.0576 26.375C23.3346 26.9337 23.4731 27.5966 23.4731 28.3636ZM22.6208 28.3636C22.6208 27.7339 22.5155 27.2024 22.3048 26.7692C22.0964 26.3359 21.8135 26.008 21.4561 25.7855C21.1009 25.563 20.7032 25.4517 20.2629 25.4517C19.8225 25.4517 19.4236 25.563 19.0661 25.7855C18.711 26.008 18.4281 26.3359 18.2174 26.7692C18.0091 27.2024 17.9049 27.7339 17.9049 28.3636C17.9049 28.9934 18.0091 29.5249 18.2174 29.9581C18.4281 30.3913 18.711 30.7192 19.0661 30.9418C19.4236 31.1643 19.8225 31.2756 20.2629 31.2756C20.7032 31.2756 21.1009 31.1643 21.4561 30.9418C21.8135 30.7192 22.0964 30.3913 22.3048 29.9581C22.5155 29.5249 22.6208 28.9934 22.6208 28.3636ZM24.9539 24.7273H26.0051L28.4767 30.7642H28.5619L31.0335 24.7273H32.0846V32H31.2607V26.4744H31.1897L28.917 32H28.1215L25.8488 26.4744H25.7778V32H24.9539V24.7273ZM33.8504 32V24.7273H38.2396V25.5085H34.7311V27.9659H38.0123V28.7472H34.7311V31.2188H38.2964V32H33.8504Z" fill="#969696"/>
<path d="M25.7514 18.3061V18.3076C25.7513 18.3312 25.7559 18.3544 25.7648 18.3762C25.7738 18.3979 25.7869 18.4177 25.8035 18.4343L25.4494 18.7873L25.8035 18.4343C25.8201 18.451 25.8398 18.4642 25.8615 18.4732L25.7514 18.3061ZM25.7514 18.3061V14.2495C25.7514 13.9369 25.6272 13.6371 25.4062 13.416L25.0526 13.7696L25.4062 13.416C25.1851 13.195 24.8853 13.0708 24.5727 13.0708H21.8581C21.5455 13.0708 21.2458 13.195 21.0247 13.416L21.3783 13.7696L21.0247 13.416C20.8037 13.6371 20.6795 13.9369 20.6795 14.2495V18.3091C20.6795 18.3563 20.6608 18.4016 20.6275 18.4351C20.5942 18.4685 20.5491 18.4874 20.502 18.4877C20.5019 18.4877 20.5018 18.4877 20.5017 18.4877L15.7512 18.5C15.751 18.5 15.7509 18.5 15.7508 18.5C15.7035 18.4999 15.6583 18.4811 15.6248 18.4477C15.5913 18.4142 15.5725 18.3687 15.5725 18.3214V11.6058L23.2071 5.31789C23.21 5.31576 23.2135 5.31461 23.2171 5.31461C23.2208 5.31461 23.2243 5.31577 23.2272 5.3179C23.2274 5.31805 23.2276 5.31821 23.2278 5.31838L30.8601 11.6012V18.3214C30.8601 18.3687 30.8412 18.4142 30.8077 18.4477C30.7743 18.4811 30.7291 18.4999 30.6819 18.5C30.6817 18.5 30.6816 18.5 30.6814 18.5L25.7514 18.3061ZM34.9273 9.69263L34.9299 9.69473C34.9308 9.69548 34.9315 9.69641 34.9321 9.69745C34.9327 9.69849 34.933 9.69963 34.9331 9.70081C34.9333 9.702 34.9331 9.70319 34.9328 9.7043C34.9325 9.70544 34.9319 9.7065 34.9311 9.70742L33.8504 11.0212C33.8504 11.0213 33.8504 11.0213 33.8503 11.0213C33.8496 11.0222 33.8487 11.0229 33.8477 11.0234C33.8467 11.024 33.8455 11.0243 33.8443 11.0244C33.8438 11.0245 33.8432 11.0245 33.8427 11.0245C33.8421 11.0244 33.8415 11.0243 33.8409 11.0241C33.8397 11.0237 33.8387 11.0232 33.8378 11.0224L33.8369 11.0217L23.8595 2.80412L23.8595 2.8041L23.8554 2.80078C23.6746 2.65505 23.4494 2.57557 23.2171 2.57557C22.9849 2.57557 22.7597 2.65505 22.5789 2.80078L22.5789 2.80076L22.5748 2.80412L12.5978 11.0217L12.5973 11.0221C12.5969 11.0225 12.5964 11.0228 12.5959 11.0231C12.5954 11.0234 12.5948 11.0236 12.5942 11.0238L12.7406 11.5019L12.5942 11.0238C12.5931 11.0241 12.5919 11.0243 12.5907 11.0241L12.5907 11.0241C12.5895 11.024 12.5884 11.0237 12.5873 11.0231C12.5863 11.0226 12.5854 11.0218 12.5846 11.0209L12.5846 11.0209L11.503 9.70598L11.5021 9.70485C11.5013 9.70394 11.5007 9.70289 11.5004 9.70176L11.0228 9.8487L11.5004 9.70176C11.5001 9.70063 11.4999 9.69945 11.5 9.69827C11.5002 9.6971 11.5005 9.69596 11.501 9.69492L11.0602 9.46132L11.501 9.69491C11.5016 9.6939 11.5023 9.693 11.5032 9.69226C11.5032 9.69224 11.5032 9.69222 11.5033 9.69219L22.239 0.850534C22.2391 0.850491 22.2392 0.850449 22.2392 0.850407C22.5141 0.62425 22.859 0.5006 23.215 0.5006C23.5711 0.5006 23.916 0.624296 24.191 0.850534L24.191 0.850564L27.9885 3.97489L28.8061 4.64762V3.58877V0.508985C28.8061 0.506598 28.8071 0.504314 28.8088 0.502632C28.8105 0.500947 28.8127 0.5 28.8151 0.5H31.1904C31.1928 0.5 31.1951 0.500948 31.1967 0.502632C31.1984 0.504314 31.1994 0.506598 31.1994 0.508985V6.38395V6.61977L31.3813 6.76977L34.9273 9.69263Z" stroke="#263238"/>
</svg>
