<svg width="17" height="18" viewBox="0 0 17 18" fill="none" xmlns="http://www.w3.org/2000/svg">
<path d="M1.31556 14.8548H10.0891C10.0281 16.031 9.2701 16.7803 8.2246 16.7803C7.17037 16.7803 6.4211 16.031 6.3514 14.8548H4.99227C5.06197 16.5276 6.37753 18 8.2246 18C10.0629 18 11.3785 16.5276 11.4482 14.8548H15.1249C15.9525 14.8548 16.4405 14.4279 16.4405 13.8006C16.4405 12.9293 15.5605 12.1452 14.8025 11.3698C14.2275 10.7686 14.0707 9.53147 14.0097 8.52953C13.94 5.0968 13.06 2.8751 10.7338 2.0387C10.4463 0.9061 9.50534 0 8.2246 0C6.93513 0 6.0029 0.9061 5.70667 2.0387C3.38917 2.8751 2.50047 5.0968 2.4395 8.52953C2.3698 9.53147 2.22167 10.7686 1.63793 11.3698C0.888666 12.1452 0 12.9293 0 13.8006C0 14.4279 0.496599 14.8548 1.31556 14.8548ZM1.69893 13.5392V13.4347C1.85577 13.1733 2.3698 12.668 2.83157 12.1539C3.45013 11.4569 3.74637 10.3417 3.82477 8.63407C3.89447 4.83543 5.0271 3.61566 6.52563 3.2149C6.74347 3.16263 6.85674 3.04937 6.86543 2.83153C6.9003 1.91673 7.41434 1.28073 8.2246 1.28073C9.02614 1.28073 9.5489 1.91673 9.57504 2.83153C9.58374 3.04937 9.7057 3.16263 9.92354 3.2149C11.4134 3.61566 12.546 4.83543 12.6244 8.63407C12.6941 10.3417 12.9903 11.4569 13.6176 12.1539C14.0707 12.668 14.5934 13.1733 14.7503 13.4347V13.5392H1.69893Z" fill="#1E1E1E"/>
</svg>
