<svg width="47" height="36" viewBox="0 0 47 36" fill="none" xmlns="http://www.w3.org/2000/svg">
<path d="M8.95002 32V24.7273H11.4074C11.978 24.7273 12.4443 24.8303 12.8066 25.0362C13.1711 25.2398 13.441 25.5156 13.6162 25.8636C13.7914 26.2116 13.879 26.5999 13.879 27.0284C13.879 27.4569 13.7914 27.8464 13.6162 28.1967C13.4434 28.5471 13.1759 28.8265 12.8137 29.0348C12.4514 29.2408 11.9874 29.3438 11.4216 29.3438H9.66025V28.5625H11.3932C11.7838 28.5625 12.0975 28.495 12.3343 28.3601C12.571 28.2251 12.7426 28.0429 12.8492 27.8132C12.9581 27.5812 13.0125 27.3196 13.0125 27.0284C13.0125 26.7372 12.9581 26.4768 12.8492 26.2472C12.7426 26.0175 12.5698 25.8376 12.3307 25.7074C12.0916 25.5748 11.7744 25.5085 11.379 25.5085H9.8307V32H8.95002ZM15.2977 32V24.7273H19.6869V25.5085H16.1784V27.9659H19.4596V28.7472H16.1784V31.2188H19.7437V32H15.2977ZM21.2742 32V24.7273H23.7316C24.2998 24.7273 24.7662 24.8243 25.1308 25.0185C25.4954 25.2102 25.7652 25.4742 25.9404 25.8104C26.1156 26.1465 26.2032 26.5289 26.2032 26.9574C26.2032 27.3859 26.1156 27.7659 25.9404 28.0973C25.7652 28.4287 25.4965 28.6892 25.1343 28.8786C24.7721 29.0656 24.3093 29.1591 23.7458 29.1591H21.7572V28.3636H23.7174C24.1057 28.3636 24.4182 28.3068 24.6549 28.1932C24.894 28.0795 25.0669 27.9186 25.1734 27.7102C25.2823 27.4995 25.3367 27.2486 25.3367 26.9574C25.3367 26.6662 25.2823 26.4117 25.1734 26.1939C25.0645 25.9761 24.8905 25.808 24.6514 25.6896C24.4123 25.5689 24.0962 25.5085 23.7032 25.5085H22.1549V32H21.2742ZM24.6975 28.733L26.4873 32H25.4646L23.7032 28.733H24.6975ZM27.6707 32V24.7273H32.0315V25.5085H28.5514V27.9659H31.7048V28.7472H28.5514V32H27.6707ZM34.4205 24.7273V32H33.5399V24.7273H34.4205ZM36.1863 32V24.7273H37.067V31.2188H40.4477V32H36.1863Z" fill="#969696"/>
<path d="M16 20V18.8125C16 14.2216 19.7216 10.5 24.3125 10.5C28.9034 10.5 32.625 14.2216 32.625 18.8125V20" stroke="#31425A" stroke-width="1.65" stroke-linecap="round" stroke-linejoin="round"/>
<path d="M24.3125 10.5C26.9358 10.5 29.0625 8.37331 29.0625 5.75C29.0625 3.12665 26.9358 1 24.3125 1C21.6891 1 19.5625 3.12665 19.5625 5.75C19.5625 8.37331 21.6891 10.5 24.3125 10.5Z" stroke="#31425A" stroke-width="1.65" stroke-linecap="round" stroke-linejoin="round"/>
</svg>
