<svg width="145" height="101" viewBox="0 0 145 101" fill="none" xmlns="http://www.w3.org/2000/svg">
<path fill-rule="evenodd" clip-rule="evenodd" d="M38.3007 48.6496C45.4445 48.6496 51.2362 43.261 51.2362 36.6124C51.2362 29.9638 45.4445 24.5752 38.3007 24.5752C31.1568 24.5752 25.3652 29.9638 25.3652 36.6124C25.3652 43.261 31.1568 48.6496 38.3007 48.6496Z" stroke="white" stroke-width="2"/>
<path d="M32.2432 99.9866L75.0948 43.8201L92.8114 66.0645L115.598 32.7231L143.966 71.1096" stroke="white" stroke-width="2"/>
<path fill-rule="evenodd" clip-rule="evenodd" d="M143.966 6.45667C143.966 3.92616 141.764 1.87512 139.051 1.87512H6.22917C3.51297 1.87512 1.31082 3.92616 1.31082 6.45667V95.4052C1.31082 97.9357 3.51297 99.9867 6.22917 99.9867H139.051C141.764 99.9867 143.966 97.9357 143.966 95.4052V6.45667Z" stroke="white" stroke-width="2"/>
</svg>
